<svg xmlns="http://www.w3.org/2000/svg" version="1.1" xmlns:xlink="http://www.w3.org/1999/xlink" xmlns:svgjs="http://svgjs.dev/svgjs" width="1440" height="560" preserveAspectRatio="none" viewBox="0 0 1440 560"><g mask="url(&quot;#SvgjsMask1000&quot;)" fill="none"><rect width="1440" height="560" x="0" y="0" fill="#0e2a47"></rect><path d="M399.52 236.73a6.7 6.7 0 1 0-10.57 8.23z" fill="#037b0b"></path><path d="M511.84 347.26L515.48 347.26L515.48 391.38L511.84 391.38z" stroke="#037b0b"></path><path d="M1347.89 352.92a6.66 6.66 0 1 0 12.77 3.78z" fill="#d3b714"></path><path d="M303.33 306.89L356.91 306.89L356.91 361.86L303.33 361.86z" stroke="#d3b714"></path><path d="M936.91 426.7L967.38 426.7L967.38 455.77L936.91 455.77z" stroke="#e73635"></path><path d="M95.16 294.68a26.24 26.24 0 1 0-47.13-23.08z" fill="#e73635"></path><path d="M107.27 460.83L132.82 460.83L132.82 483.62L107.27 483.62z" fill="#d3b714"></path><path d="M1006.15 190.65L1049 190.65L1049 241.92L1006.15 241.92z" stroke="#e73635"></path><path d="M423.31 143.62L472.16 143.62L472.16 192.47L423.31 192.47z" stroke="#e73635"></path><path d="M1395.18 52.53L1449.92 52.53L1449.92 107.27L1395.18 107.27z" stroke="#d3b714"></path><path d="M992.95 50.39L1005.66 50.39L1005.66 71.77L992.95 71.77z" stroke="#e73635"></path><path d="M1220.7 428.22 a40.34 40.34 0 1 0 80.68 0 a40.34 40.34 0 1 0 -80.68 0z" stroke="#037b0b"></path><path d="M1102.68 416.45L1126.62 416.45L1126.62 468.23L1102.68 468.23z" stroke="#037b0b"></path><path d="M133.63 253.74a47.08 47.08 0 1 0 39.6-85.43z" fill="#d3b714"></path><path d="M745.2 294.25L747.66 294.25L747.66 296.71L745.2 296.71z" stroke="#d3b714"></path><path d="M799.77 218.67 a41.8 41.8 0 1 0 83.6 0 a41.8 41.8 0 1 0 -83.6 0z" fill="#037b0b"></path><path d="M1157.43 558.9a28.99 28.99 0 1 0-46.05-35.24z" fill="#d3b714"></path><path d="M1146.21 141.4L1157.09 141.4L1157.09 166.25L1146.21 166.25z" stroke="#d3b714"></path><path d="M223.55 202.14L246.18 202.14L246.18 242.4L223.55 242.4z" fill="#d3b714"></path><path d="M452.88 554.88 a21.82 21.82 0 1 0 43.64 0 a21.82 21.82 0 1 0 -43.64 0z" stroke="#d3b714"></path><path d="M449.42 124.12L480.15 124.12L480.15 147.53L449.42 147.53z" stroke="#037b0b"></path><path d="M1025.55 280.81L1038.81 280.81L1038.81 298.44L1025.55 298.44z" stroke="#e73635"></path><path d="M1400.05 356.62 a4.64 4.64 0 1 0 9.28 0 a4.64 4.64 0 1 0 -9.28 0z" stroke="#e73635"></path><path d="M714.95 28.78L762 28.78L762 39.64L714.95 39.64z" fill="#e73635"></path><path d="M124.02 64.47L152.01 64.47L152.01 92.46L124.02 92.46z" fill="#037b0b"></path><path d="M1248.3 480.1L1262.4 480.1L1262.4 494.33L1248.3 494.33z" fill="#037b0b"></path><path d="M292.38 283.61 a13.38 13.38 0 1 0 26.76 0 a13.38 13.38 0 1 0 -26.76 0z" stroke="#037b0b"></path><path d="M516.79 99.57a41.51 41.51 0 1 0 39.25 73.16z" fill="#e73635"></path><path d="M707.56 369.74 a21.52 21.52 0 1 0 43.04 0 a21.52 21.52 0 1 0 -43.04 0z" fill="#e73635"></path><path d="M162.89 141.07a37.27 37.27 0 1 0-74.25-6.6z" stroke="#037b0b"></path><path d="M123.5 397.11L142.52 397.11L142.52 416.13L123.5 416.13z" fill="#037b0b"></path><path d="M1251.91 206.66 a9.11 9.11 0 1 0 18.22 0 a9.11 9.11 0 1 0 -18.22 0z" stroke="#d3b714"></path><path d="M472.38 346.19a26.26 26.26 0 1 0 5.86 52.19z" fill="#e73635"></path></g><defs><mask id="SvgjsMask1000"><rect width="1440" height="560" fill="#ffffff"></rect></mask></defs></svg>